<?xml version="1.0" encoding="utf-8"?>
<!-- Generator: Adobe Illustrator 27.8.1, SVG Export Plug-In . SVG Version: 6.00 Build 0)  -->
<svg version="1.1" id="Capa_1" xmlns="http://www.w3.org/2000/svg" xmlns:xlink="http://www.w3.org/1999/xlink" x="0px" y="0px"
	 viewBox="0 0 480 480" style="enable-background:new 0 0 480 480;" xml:space="preserve">
<style type="text/css">
	.st0{fill:#343434;}
</style>
<g id="nETfgU.tif">
	<g>
		<path class="st0" d="M61,146.8c0-0.5,0-1.1,0-1.6c0.6-3.7,1-7.4,1.9-11.1c4.4-18.7,13.2-34.8,27.8-47.6c7.9-6.9,16.6-12.7,26.5-16
			c26.9-9.2,54-18,81.1-27c11-3.7,21.8-7.6,32.7-11.4c2.4,0,4.9,0,7.3,0c0.1,0.2,0.2,0.6,0.4,0.6c32.8,10.9,65.6,22.1,98.6,32.6
			c19.8,6.3,38.1,14.5,51.4,31.3c9.1,11.4,15.2,24.1,18,38.5c0.7,3.9,1.6,7.8,2.4,11.7c0,0.3,0,0.5,0,0.8c-0.3,1.1-0.8,2.1-0.8,3.2
			c0,29.4,0,58.9,0,88.3c0,1.2,0.5,2.4,0.8,3.6c0,1.6,0,3.3,0,4.9c-0.8,4.3-2,8.6-2.4,12.9c-1.1,11.9-4.3,23.1-8.1,34.3
			c-9.6,27.7-26,51.2-45.6,72.5c-6.2,6.7-12.8,13.1-19.8,19c-11,9.3-22.2,18.5-33.9,26.9c-18.8,13.7-39.1,25-60.1,35.1
			c-3,0-6,0-8.9,0c-1.3-0.7-2.7-1.3-4-2c-12.6-6.9-25.3-13.5-37.6-20.8c-21.6-13-41.4-28.5-59.8-45.8c-5.4-5.1-10.4-10.6-15.3-16.1
			c-4.8-5.4-9.6-10.7-13.9-16.5c-11-15-20.5-30.9-27.1-48.5C66.8,283,62.4,267.1,62,250.3c0-0.9-0.5-1.9-0.8-2.8c0-1.6,0-3.3,0-4.9
			c0.3-1.1,0.8-2.1,0.8-3.2c0.1-30,0.1-60,0-89.9C61.8,148.6,61.3,147.7,61,146.8z M234,412.4c9.2-5.3,18.1-10,26.6-15.3
			c17.8-10.9,34.8-23.2,50.2-37.3c11.8-10.8,22.8-22.3,32.4-35.3c19.8-26.7,30.9-56.2,30.7-89.7c-0.2-25.1,0.1-50.1-0.1-75.2
			c0-5.9-0.5-11.8-1.4-17.6c-3.3-19.3-14.8-32.6-32.8-39c-34.1-12.1-68.6-23-103-34.3c-1.2-0.4-2.8-0.4-4,0
			c-33.1,11-66.1,22.4-99.4,32.9c-22,7-37.7,28.2-37.1,51.7c0.7,28.6,0.1,57.2,0.2,85.8c0,5.6-0.1,11.3,0.7,16.8
			c2,14.8,6.4,28.9,13,42.3c8.4,16.8,19.3,32,32.3,45.5c6.4,6.6,12.8,13.1,19.9,19c10.2,8.6,20.7,17,31.7,24.5
			C206.8,396.2,220.5,404.1,234,412.4z"/>
		<path class="st0" d="M219.6,248.8c24-24,47.8-47.5,71.2-71.4c7.4-7.6,16.8-8.1,25.2-1.8c6.8,5.1,7.6,17.9,1.4,24.1
			c-25.5,25.7-51,51.3-76.8,76.7c-10.6,10.5-30.8,11.1-41,1.2c-10.1-9.7-19.6-19.9-29.3-29.9c-4.8-4.9-9.7-9.8-14.6-14.7
			c-10.2-10.2-4.9-26.4,7.4-29.5c6.2-1.6,14.5,1.3,18.6,6c1.3,1.5,2.5,3.1,3.9,4.6c10.6,11,21.3,21.9,32,32.8
			C218.1,247.4,218.7,248,219.6,248.8z"/>
	</g>
</g>
</svg>
