<?xml version="1.0" encoding="utf-8"?>
<!-- Generator: Adobe Illustrator 27.8.1, SVG Export Plug-In . SVG Version: 6.00 Build 0)  -->
<svg version="1.1" id="Capa_1" xmlns="http://www.w3.org/2000/svg" xmlns:xlink="http://www.w3.org/1999/xlink" x="0px" y="0px"
	 viewBox="0 0 480 480" style="enable-background:new 0 0 480 480;" xml:space="preserve">
<style type="text/css">
	.st0{fill:#343434;}
</style>
<g id="Px4sy8.tif">
	<g>
		<path class="st0" d="M42.3,401.5c0.8-3.9,1.6-7.7,2.4-11.6c3.4-17.2,10.1-33,20.4-47.1c5.2-7.1,11.2-13.8,17.5-19.9
			c11.1-10.7,24-18.8,38.6-24c8-2.9,16.3-5.6,24.6-6.9c11.9-1.9,24-1.9,36.2-0.4c11.5,1.4,22.4,4.1,33.1,8.6
			c11.2,4.7,21.4,10.9,30.8,18.7c14.8,12.2,26.4,26.9,34.2,44.4c5.1,11.4,8.9,23.3,9.8,35.9c0.4,4.8,1.5,9.6,1.4,14.4
			c-0.3,12.1-6.4,22.3-20.1,25.4c-0.3,0.1-0.5,0.5-0.8,0.7c-3.1,0-6.2,0-9.3,0c-0.5-0.3-1-0.7-1.5-0.8c-10.5-2.9-18.1-13.2-18-23.6
			c0-4.4-0.8-8.8-1.5-13.2c-2.9-19.4-12.7-35-28-46.7c-18.3-13.9-39.3-18.1-61.6-13.6c-15.7,3.2-29.2,11.1-39.8,23.7
			c-11.6,13.7-18,29.2-18.6,47.3c-0.1,5-1.7,10.2-3.9,14.7c-3.3,6.8-10,10-17,12.2c-3.1,0-6.2,0-9.3,0c-2-0.9-4.1-1.6-6-2.6
			c-7.1-3.5-10.8-9.8-13.4-16.9C42.3,414,42.3,407.7,42.3,401.5z"/>
		<path class="st0" d="M341.3,41c6.3,1.8,12.7,3.3,18.8,5.5c12.3,4.5,22.3,12.1,30.6,22.3c7.1,8.8,12.1,18.5,14.6,29.5
			c2.3,10.1,2.7,20.2,0.9,30.6c-3,17.3-11.2,31.4-24.1,42.9c-11.1,9.9-24.2,15.9-39.1,18c-16,2.3-30.9-0.5-45.1-7.9
			c-12.6-6.6-22.5-16.1-29.6-28.4c-7.7-13.3-11.4-27.6-10.2-42.9c1.2-15.2,6.5-28.9,16-40.9c9.4-11.9,21.1-20.6,35.8-24.9
			c4.7-1.4,9.6-2.5,14.3-3.8C329.9,41,335.6,41,341.3,41z M332.5,140.7c13.3,0.2,26-10.9,25.2-25.8c-0.8-14.2-10.7-23.8-25.9-23.8
			c-13.4,0-24.2,10.8-23.8,25.9C308.2,128.8,318.6,141.1,332.5,140.7z"/>
		<path class="st0" d="M441,345.5c-0.6,1.2-1.2,2.3-1.7,3.5c-3.8,8.4-13,17.5-26.6,15.9c-9.4-1.1-17.8-7.2-20.6-18.1
			c-1.1-4.1-1.4-8.5-1.7-12.8c-0.6-11.9-4.7-22.8-11.6-32.2c-9.6-13-22.1-22.2-38.2-25.9c-20.9-4.8-40.1-1.4-57.2,12
			c-4.7,3.6-9.8,6.3-15.6,7c-5.8,0.6-11.2-1.4-15.9-4.8c-8.2-6-11.3-14.3-10.3-24.3c0.6-5.8,3.3-11,7.6-14.4
			c7.1-5.6,14.6-10.7,22.6-14.9c12.2-6.4,25.2-10.2,39-11.7c24.7-2.7,47.9,1.8,69.6,13.5c19.6,10.6,34.7,25.9,45.7,45.4
			c6.7,11.9,10.6,24.7,13.3,38c0.4,2.3,1,4.5,1.5,6.7C441,334,441,339.7,441,345.5z"/>
		<path class="st0" d="M164.3,256.7c-39.4,0.7-69.9-33.8-72.1-68.5c-3.1-48.4,35.1-78.7,68.5-80.3c22.3-1.1,41.9,5.3,58,20.7
			c15.2,14.5,22.9,33,22.7,53.9c-0.2,20.4-7.5,38.5-22.5,53C204.1,249.7,186.5,257.2,164.3,256.7z M142,182.2
			c0,15,10.7,25.2,27,24.6c12.5-0.5,22.6-10.7,22.6-24.7c0-11.1-7.8-25.7-28.5-24.3C153.1,158.4,141.3,168.5,142,182.2z"/>
	</g>
</g>
</svg>
