<?xml version="1.0" encoding="utf-8"?>
<!-- Generator: Adobe Illustrator 27.8.1, SVG Export Plug-In . SVG Version: 6.00 Build 0)  -->
<svg version="1.1" id="Capa_1" xmlns="http://www.w3.org/2000/svg" xmlns:xlink="http://www.w3.org/1999/xlink" x="0px" y="0px"
	 viewBox="0 0 480 480" style="enable-background:new 0 0 480 480;" xml:space="preserve">
<style type="text/css">
	.st0{fill:#00FFF8;}
</style>
<path class="st0" d="M440.2,127c-2.2-18.5-10.2-34.4-22.3-48.3c-11.3-12.9-25.3-21.7-41.8-26.4c-5.8-1.6-11.6-2.9-17.4-4.3
	c-0.6,0-1.1,0-1.7,0c-0.9,0-1.7,0-2.6,0c-0.9,0-1.7,0-2.6,0c-1.5,0.3-2.9,0.8-4.4,0.8c-35.8,0-71.7,0-107.5,0
	c-35.8,0-71.7,0-107.5,0c-1.5,0-2.9-0.5-4.4-0.8c-0.9,0-1.7,0-2.6,0c-0.9,0-1.7,0-2.6,0c-0.6,0-1.1,0-1.7,0
	c-5.8,1.4-11.7,2.7-17.4,4.3C87.3,57,73.3,65.9,62,78.7C49.9,92.5,42,108.5,39.8,127c0,0.3-0.5,0.5-0.8,0.8c0,50.6,0,101.1,0,151.7
	c0.6,2.9,1,5.9,1.8,8.7c6,22.5,17.8,41,37,54.5c15.6,11,32.9,16.7,52.2,16.6c29-0.2,58,0,87,0c1.5,0,3.1,0,4.6,0
	c0,12.3,0,24.3,0,36.6c-1.6,0-3,0-4.4,0c-16.1,0-32.3,0.3-48.4-0.1c-11.9-0.3-21.7,7.6-20,21.4c1,8.1,8.1,15.2,16.4,15.3
	c23.8,0.2,47.7-0.4,71.5,0.1c1.1,0,2.2,0,3.3-0.1c1.1,0.1,2.1,0.2,3.3,0.1c23.8-0.5,47.7,0.2,71.5-0.1c8.3-0.1,15.4-7.2,16.4-15.3
	c1.7-13.8-8.2-21.7-20-21.4c-16.1,0.5-32.3,0.1-48.4,0.1c-1.4,0-2.8,0-4.4,0c0-12.4,0-24.3,0-36.6c1.6,0,3.1,0,4.6,0
	c29,0,58-0.1,87,0c19.2,0.1,36.5-5.6,52.2-16.6c19.2-13.5,31-32,37-54.5c0.8-2.9,1.2-5.8,1.8-8.7c0-50.6,0-101.1,0-151.7
	C440.7,127.5,440.3,127.3,440.2,127z M404.3,268.9c-0.1,20.5-9.8,35.5-26.8,46.3c-9,5.7-19,7.5-29.5,7.4
	c-34.9-0.1-69.7,0.1-104.6-0.1c-1.2,0-2.3,0.1-3.4,0.2c-1.1-0.1-2.2-0.2-3.4-0.2c-34.9,0.3-69.7,0-104.6,0.1
	c-10.5,0-20.5-1.7-29.5-7.4c-17-10.7-26.8-25.8-26.8-46.3c-0.1-42.9-0.1-85.7,0-128.6c0-0.3,0-0.6,0-0.9c0.8-5.6,1.2-11.4,2.9-16.7
	c2.2-6.9,5.4-12.9,9.5-18c2-2.4,4.2-4.6,6.7-6.8c0.6-0.5,1.2-1,1.8-1.5c6-4.5,13.1-7.8,21.3-9.8c4-1,8.3-1.5,12.5-1.7
	c31.6-0.1,63.3-0.2,94.9-0.2c4.9,0,9.8,0,14.7,0c4.9,0,9.8,0,14.7,0c31.6,0,63.3,0.1,94.9,0.2c4.2,0.2,8.4,0.7,12.5,1.7
	c8.2,2,15.3,5.3,21.3,9.8c0.6,0.5,1.2,1,1.8,1.5c2.5,2.1,4.7,4.4,6.7,6.8c4.1,5.1,7.3,11,9.5,18c1.7,5.3,2,11.1,2.9,16.7
	c0,0.3,0,0.6,0,0.9C404.4,183.2,404.4,226.1,404.3,268.9z"/>
</svg>
