<?xml version="1.0" encoding="utf-8"?>
<!-- Generator: Adobe Illustrator 27.8.1, SVG Export Plug-In . SVG Version: 6.00 Build 0)  -->
<svg version="1.1" id="Capa_1" xmlns="http://www.w3.org/2000/svg" xmlns:xlink="http://www.w3.org/1999/xlink" x="0px" y="0px"
	 viewBox="0 0 480 480" style="enable-background:new 0 0 480 480;" xml:space="preserve">
<style type="text/css">
	.st0{fill:#00FFF8;}
</style>
<g>
	<path class="st0" d="M441,263.8c0.1-3.9,0-6.1,0-6.1c0-48.2,0-96.4,0-144.5c-0.9-3.4-2-6.9-2.8-10.3c-3.3-13.3-9.6-25-18.7-35.3
		c-10.7-12-23.7-20.1-39-24.7c-4.6-1.4-9.4-2.4-14.1-3.6c-62.6,0-125.1,0-187.7,0c-3,0.8-5.9,1.6-8.9,2.4
		C153.2,46,138.8,54,127.4,66.9c-11.7,13.2-19.1,28.5-20.8,46.2c-0.4,4.4-0.6,8.7-0.6,13.1c0,55.1,0,110.1,0,165.2
		c0,20.9,7.4,38.9,21.1,54.6c13.2,15.2,30,23.9,49.5,27.6c4.6,0.9,9.5,0.7,14.3,0.7c47.2,0,94.4,0.2,141.7-0.2
		c88.1,0,104.9-69,108-100.8c0.2-0.3,0.4-0.6,0.6-0.8C441,269.6,441,266.7,441,263.8z M325.7,279.2c-1.1,3.1-1.7,6.5-1.7,9.8
		c-0.2,17.1-0.1,34.2-0.1,51.9c-1.6,0-3,0-4.4,0c-44.9,0-89.7,0.2-134.6-0.2c-10.6-0.1-20-4.9-28.1-11.9c-9.4-8.2-15-18.5-17.2-30.7
		c-0.3-1.6-0.1-3.4-0.1-5.1c0-58.3-0.1-116.7,0.1-175c0-9.6,4.4-18.2,10.3-25.7c7.2-9.2,16.5-15.5,28-17.9c4.3-0.9,8.7-1.4,13-1.4
		c54.9-0.1,109.9-0.1,164.8,0c24.8,0.1,44.5,15.2,50.6,40.1c0.8,3.3,1,6.9,1,10.4c0.1,43.7,0,87.4,0,131.1c0,0.7,0,1.5,0,2.6
		c-8.9,0-17.5-0.1-26.1,0c-9.4,0.1-18.8,0-28.2,0.7C339.9,258.7,329.9,267.1,325.7,279.2z"/>
	<path class="st0" d="M321.5,407.7c-65.4,0.1-130.8,0.1-196.2,0c-4.2,0-8.5-0.3-12.7-1c-22-3.4-40.1-25.8-40-47.9
		c0.3-66.2,0.1-132.4,0.1-198.6c0-1,0-2.1,0-3.1c-0.6-11.8-10.9-19.7-22.4-16.4c-5.9,1.7-8.8,6.5-11.2,11.7c0,72,0,143.9,0,215.9
		c1.6,5.7,2.8,11.6,4.7,17.2c5.1,15.2,14.3,27.4,26.7,37.6c11.1,9.1,23.9,14.3,37.7,17.4c1.3,0.3,2.6,0.5,3.9,0.8
		c71.7,0,143.4,0,215.1,0c1.2-0.6,2.4-1.1,3.7-1.7c7.3-3.7,9.7-10.3,9.1-17.5C339.2,413.5,329.7,407.7,321.5,407.7z"/>
	<path class="st0" d="M338.3,199.1c-3.4-6.6-9.3-8.8-16.1-8.9c-10.6-0.2-21.1-0.1-31.9-0.1c0-3.3,0.1-6.3,0-9.3
		c-0.2-8.8-0.5-17.7-0.8-26.5c-0.2-7-5.2-12.5-14.7-14.4c-4.9-1-12.1,2.2-15.2,7.5c-1.5,2.5-2.6,5.6-2.7,8.5
		c-0.3,11.3-0.1,22.6-0.1,34.2c-11.7,0-22.9-0.1-34.2,0c-9.1,0.1-16.3,7.6-16.3,16.8c0,9,7.3,16.6,16.3,16.7
		c9.5,0.1,19.1,0.1,28.6,0.1c1.8,0,3.6,0,5.6,0c0,12.1-0.3,23.7,0.1,35.4c0.3,9.2,9.4,15.9,17,15c10.1-1.3,16.1-7.5,16.4-18.2
		c0.2-10.6,0-21.1,0-32.1c11.6,0,22.8,0.3,33.9-0.1C336,223.1,344.1,210.6,338.3,199.1z"/>
</g>
</svg>
