<?xml version="1.0" encoding="utf-8"?>
<!-- Generator: Adobe Illustrator 27.8.1, SVG Export Plug-In . SVG Version: 6.00 Build 0)  -->
<svg version="1.1" id="Capa_1" xmlns="http://www.w3.org/2000/svg" xmlns:xlink="http://www.w3.org/1999/xlink" x="0px" y="0px"
	 viewBox="0 0 480 480" style="enable-background:new 0 0 480 480;" xml:space="preserve">
<style type="text/css">
	.st0{fill:#343434;}
</style>
<g id="_x37_S5CVA.tif">
	<g>
		<path class="st0" d="M437.7,195.8c-0.8,0.9-1.7,1.8-2.2,2.8c-3.5,6.8-11.3,10.6-18.8,8.6c-5.5-1.4-12-7.8-11.9-15.1
			c0.1-11.1,0.1-22.1,0-33.2c-0.2-13.8-4.8-26-14.7-35.6c-8.3-8.1-18.4-13.3-30.3-13.9c-5-0.3-10-0.6-15-0.6
			c-72.4,0-144.7,0-217.1,0c-11.9,0-23,2.5-32.4,9.9c-12,9.5-19.4,21.7-19.5,37.6c0,6,0,12,0,18.5c1.6,0,3,0,4.4,0
			c47.2,0,94.4,0.1,141.5,0c8.8,0,16.2,4.8,18,13.7c1.9,9.5-5.9,18.3-14.1,19c-1.7,0.1-3.3,0.1-5,0.1c-46.8,0-93.6,0-140.4,0
			c-1.4,0-2.8,0-4.5,0c0,1.7,0,2.9,0,4.2c0,48.3,0.3,96.7-0.1,145c-0.2,21.8,17.7,44.1,39.5,47.3c3.9,0.6,7.8,0.9,11.7,0.9
			c21,0.1,41.9,0,62.9,0.1c10.3,0,17.8,7.7,17.4,17.6c-0.3,6.4-5.5,13.6-12.4,14.6c-0.3,0-0.5,0.5-0.7,0.7c-26.5,0-53,0-79.5,0
			c-1.3-0.3-2.5-0.5-3.8-0.8c-13.5-3.1-26.1-8.2-37-17.1c-12.2-10-21.2-22-26.3-36.9c-1.9-5.5-3.1-11.3-4.7-16.9
			c0-72.8,0-145.6,0-218.3c0.3-1.7,0.5-3.3,0.9-5c4.6-18.5,12.9-34.8,27.8-47.4c13.9-11.7,29.9-18.1,47.9-19.4
			c7.2-0.5,14.5-0.1,22.1-0.1c0-4,0-7.4,0-10.9c0-3.3-0.4-6.8,0.4-9.9c1.6-6.6,6.3-10.4,12.7-12.4c2.3,0,4.6,0,6.9,0
			c0.6,0.4,1.1,1,1.7,1.3c7.6,3.3,10.7,7.8,10.6,16c0,5.2,0,10.4,0,15.6c44.3,0,87.9,0,131.9,0c0-5.5-0.3-10.9,0.1-16.3
			c0.2-3,1.4-6,2.6-8.8c1.9-4.5,6.4-5.9,10.4-7.7c2.3,0,4.6,0,6.9,0c3.1,2,6.5,3.6,9.1,6.1c3.4,3.3,3.8,8,4,12.5
			c0.2,4.8,0,9.6,0,14.1c9.1,0.4,17.6,0.7,26.1,1.2c9.7,0.5,18.8,3.6,27.4,8c10.6,5.4,20,12.7,27.3,22.3
			c6.4,8.4,11.6,17.4,14.2,27.8c1.2,4.6,2.5,9.2,3.8,13.7C437.7,164.4,437.7,180.1,437.7,195.8z"/>
		<path class="st0" d="M309.6,438c-4.8-1-9.6-1.9-14.4-3.1c-17.4-4.2-33-12.1-46.8-23.7c-17.3-14.5-29.3-32.5-36.2-54
			c-4.2-13.2-6.1-26.8-5.1-40.6c1.8-23.8,9.7-45.4,24.6-64.4c10.6-13.5,23.5-24,38.8-31.7c11.2-5.6,22.9-9.5,35.4-10.9
			c25-2.9,49,0.3,71.1,12.6c8,4.5,15.3,10.3,22.5,16.1c11.4,9.1,19.5,21,26,33.9c5.6,11.1,9.4,22.8,10.6,35.2c0.1,1.4,1,2.7,1.5,4
			c0,8,0,15.9,0,23.9c-0.5,0.8-1.3,1.5-1.5,2.3c-0.6,3.2-1,6.4-1.6,9.6c-3.7,18.8-12.1,35.3-24.4,49.8c-7.7,9-16.5,17-26.8,23.2
			c-12.1,7.3-24.7,13-38.7,15.5c-3.7,0.6-7.4,1.5-11.1,2.3C325.5,438,317.6,438,309.6,438z M321.6,404.8
			c43.4,1.6,85.2-36.1,82.8-85.9c-2-42.2-36.1-76.4-80.8-77.6c-46-1.3-86.7,37.8-83.6,88C242.5,367.6,276.6,405.9,321.6,404.8z"/>
		<path class="st0" d="M338.9,302.5c-3.3,11.1,2.7,18.2,10.5,24.5c9.2,7.5,7.4,22.6-5.1,27.6c-5.1,2-10.9,1.9-15-1.8
			c-7.5-6.8-14.3-14.2-21.1-21.7c-1.5-1.6-2.1-4.6-2.1-6.9c-0.2-11.9-0.1-23.9,0-35.8c0-8.6,9.6-16.9,19.7-14.3
			c9.4,2.4,13.1,10,13.1,17.7C338.9,295.3,338.9,298.9,338.9,302.5z"/>
	</g>
</g>
</svg>
