<svg xmlns="http://www.w3.org/2000/svg" xmlns:xlink="http://www.w3.org/1999/xlink" version="1.1" id="Capa_1" x="0px" y="0px" style="enable-background:new 0 0 1773.6 428.9;" xml:space="preserve" viewBox="225.13 47.86 1337 347">
<style type="text/css">
	.st0{fill:#00FFF6;}
</style>
<g>
	
		<image style="overflow:visible;opacity:0.17;" width="1337" height="347" xlink:href="A01FED2CADE906FE.png" transform="matrix(1 0 0 1 225.1286 47.8633)">
	</image>
	<g>
		<g>
			<path class="st0" d="M348.1,246l46,7.7c-5.9,16.9-15.3,29.7-28,38.5c-12.8,8.8-28.7,13.2-47.9,13.2c-30.4,0-52.8-9.9-67.4-29.8     c-11.5-15.9-17.3-35.9-17.3-60.2c0-28.9,7.6-51.6,22.7-68c15.1-16.4,34.2-24.6,57.4-24.6c26,0,46.5,8.6,61.5,25.7     c15,17.2,22.2,43.4,21.5,78.8H280.9c0.3,13.7,4.1,24.4,11.2,32c7.1,7.6,16,11.4,26.6,11.4c7.2,0,13.3-2,18.2-5.9     C341.9,261.1,345.6,254.8,348.1,246z M350.7,199.3c-0.3-13.4-3.8-23.5-10.4-30.5c-6.6-7-14.6-10.4-24-10.4     c-10.1,0-18.4,3.7-25,11c-6.6,7.3-9.8,17.3-9.7,29.9H350.7z"/>
			<path class="st0" d="M429,237.3v-46.2h90.7v46.2H429z"/>
			<path class="st0" d="M658.8,213v-40.6h104.9v96c-10.2,9.9-25,18.6-44.3,26.1c-19.3,7.5-38.9,11.3-58.8,11.3     c-25.2,0-47.2-5.3-65.9-15.9c-18.7-10.6-32.8-25.7-42.2-45.4c-9.4-19.7-14.1-41.1-14.1-64.2c0-25.1,5.3-47.4,15.8-66.9     c10.5-19.5,25.9-34.5,46.2-44.9c15.5-8,34.7-12,57.7-12c29.9,0,53.3,6.3,70.1,18.8c16.8,12.5,27.6,29.9,32.5,52l-48.3,9     c-3.4-11.8-9.8-21.2-19.2-28c-9.4-6.8-21.1-10.3-35.1-10.3c-21.3,0-38.2,6.7-50.7,20.2c-12.5,13.5-18.8,33.5-18.8,60     c0,28.6,6.4,50.1,19.1,64.4c12.7,14.3,29.4,21.5,50,21.5c10.2,0,20.4-2,30.7-6c10.2-4,19-8.8,26.4-14.5V213H658.8z"/>
			<path class="st0" d="M909.3,246l46,7.7c-5.9,16.9-15.3,29.7-28,38.5c-12.8,8.8-28.7,13.2-47.9,13.2c-30.4,0-52.8-9.9-67.4-29.8     c-11.5-15.9-17.3-35.9-17.3-60.2c0-28.9,7.6-51.6,22.7-68c15.1-16.4,34.2-24.6,57.4-24.6c26,0,46.5,8.6,61.5,25.7     c15,17.2,22.2,43.4,21.5,78.8H842.1c0.3,13.7,4.1,24.4,11.2,32c7.1,7.6,16,11.4,26.6,11.4c7.2,0,13.3-2,18.2-5.9     C903.1,261.1,906.8,254.8,909.3,246z M911.9,199.3c-0.3-13.4-3.8-23.5-10.4-30.5c-6.6-7-14.6-10.4-24-10.4     c-10.1,0-18.4,3.7-25,11c-6.6,7.3-9.8,17.3-9.7,29.9H911.9z"/>
			<path class="st0" d="M1154.3,301.6h-46.2v-89.1c0-18.8-1-31-3-36.6c-2-5.5-5.2-9.8-9.6-12.9c-4.4-3.1-9.8-4.6-16-4.6     c-8,0-15.2,2.2-21.5,6.6c-6.4,4.4-10.7,10.2-13.1,17.4c-2.4,7.2-3.5,20.6-3.5,40.1v79.1h-46.2V127h42.9v25.6     c15.2-19.7,34.4-29.6,57.5-29.6c10.2,0,19.5,1.8,27.9,5.5c8.4,3.7,14.8,8.4,19.2,14.1c4.3,5.7,7.3,12.2,9,19.4     c1.7,7.2,2.5,17.6,2.5,31.1V301.6z"/>
			<path class="st0" d="M1179.2,127h49.2l41.8,123.9l40.8-123.9h47.8l-61.6,168l-11,30.4c-4.1,10.2-7.9,18-11.6,23.3     c-3.7,5.4-7.9,9.7-12.7,13.1c-4.8,3.3-10.6,5.9-17.6,7.8c-7,1.9-14.8,2.8-23.6,2.8c-8.9,0-17.6-0.9-26.1-2.8l-4.1-36.2     c7.2,1.4,13.8,2.1,19.6,2.1c10.7,0,18.7-3.2,23.8-9.5c5.2-6.3,9.1-14.3,11.8-24.1L1179.2,127z"/>
			<path class="st0" d="M1422.9,180.3l-41.9-7.6c4.7-16.9,12.8-29.4,24.3-37.5c11.5-8.1,28.6-12.2,51.3-12.2c20.6,0,35.9,2.4,46,7.3     c10.1,4.9,17.2,11.1,21.3,18.6c4.1,7.5,6.2,21.3,6.2,41.3l-0.5,53.9c0,15.3,0.7,26.7,2.2,33.9c1.5,7.3,4.2,15.1,8.3,23.4h-45.7     c-1.2-3.1-2.7-7.6-4.4-13.6c-0.8-2.7-1.3-4.5-1.6-5.4c-7.9,7.7-16.3,13.4-25.3,17.3c-9,3.8-18.6,5.8-28.8,5.8     c-18,0-32.1-4.9-42.5-14.6c-10.4-9.8-15.5-22.1-15.5-37c0-9.9,2.4-18.7,7.1-26.4c4.7-7.7,11.3-13.6,19.8-17.8     c8.5-4.1,20.7-7.7,36.7-10.8c21.6-4.1,36.5-7.8,44.9-11.3V183c0-8.9-2.2-15.2-6.6-19c-4.4-3.8-12.7-5.7-24.8-5.7     c-8.2,0-14.6,1.6-19.2,4.8C1429.4,166.5,1425.7,172.1,1422.9,180.3z M1484.7,217.7c-5.9,2-15.3,4.3-28.1,7.1     c-12.8,2.7-21.2,5.4-25.2,8.1c-6,4.3-9,9.7-9,16.3c0,6.5,2.4,12.1,7.2,16.8c4.8,4.7,11,7.1,18.4,7.1c8.3,0,16.3-2.7,23.8-8.2     c5.6-4.2,9.3-9.3,11-15.3c1.2-3.9,1.8-11.5,1.8-22.5V217.7z"/>
		</g>
	</g>
</g>
</svg>