<?xml version="1.0" encoding="utf-8"?>
<!-- Generator: Adobe Illustrator 27.8.1, SVG Export Plug-In . SVG Version: 6.00 Build 0)  -->
<svg version="1.1" id="Capa_1" xmlns="http://www.w3.org/2000/svg" xmlns:xlink="http://www.w3.org/1999/xlink" x="0px" y="0px"
	 viewBox="0 0 480 480" style="enable-background:new 0 0 480 480;" xml:space="preserve">
<style type="text/css">
	.st0{fill:#00FFF8;}
</style>
<g id="bSp8w2.tif">
	<g>
		<path class="st0" d="M238.9,40.2c3.7,0.8,7.5,1.9,11.3,2.3c13.8,1.5,27,5.2,39.9,10.1c17.4,6.6,33.5,15.7,48.1,27.2
			c18.8,14.8,34.2,32.8,46,53.7c7.8,13.8,13.7,28.3,17.6,43.6c2,7.8,2.8,15.9,4.5,23.8c1.2,5.4,0.8,10.2-2.3,14.9
			c-4.3,6.4-10.8,8.3-17.3,7.1c-6.5-1.2-11-5.7-12.4-12.4c-1.9-8.9-3.1-17.9-5.3-26.7c-4.5-18-12.6-34.3-23.6-49.2
			c-17.7-24-40.6-41-68.6-51.4c-13.4-5-27.1-8-41.4-8.6c-6.6-0.3-13.2-1-19.7-0.7c-15.9,0.8-31.3,4.1-46.1,10
			c-12.8,5.1-24.6,11.8-35.7,20.1c-12.6,9.4-23.2,20.7-32.3,33.4c-11.9,16.6-19.8,35.1-24.2,54.9c-1.5,6.7-1.8,13.6-2.5,20.5
			c-0.4,3.8-0.9,7.7-0.8,11.5c0.5,19.3,3.8,38,11.4,56c6.1,14.6,14,28.2,24.5,40.1c2.6,3,5.5,5.9,8,8.9c6,7,14.2,5.8,20.4,0.3
			c5-4.4,10.2-8.6,15.2-13c6.7-5.9,19.3-2.7,23.5,3c5.8,8,3.1,19.4-4.2,24.2c-6.3,4.2-11.3,10.1-17.4,14.6
			c-16,11.9-39.5,12.2-55.2-0.4c-7.9-6.4-14.9-14.3-21-22.4c-7.3-9.8-13.9-20.3-19.5-31.2c-7.5-14.6-12.9-30-15.4-46.4
			c-0.9-5.8-1.6-11.6-2.4-17.4c-0.1-0.4-0.5-0.8-0.8-1.1c0-10.7,0-21.4,0-32c0.3-0.4,0.7-0.7,0.8-1.1c0.8-5.8,1.6-11.6,2.4-17.3
			c2.2-14.3,6.9-27.8,12.9-40.8c7.7-16.7,17.1-32.4,30-45.7c8-8.2,16-16.5,24.8-23.7c13.2-10.7,28.1-19,43.9-25.3
			c12.8-5.1,26-8.8,39.6-10.9c4.3-0.7,8.5-1.5,12.8-2.3C218.6,40.2,228.8,40.2,238.9,40.2z"/>
		<path class="st0" d="M340.3,440.5c-54.9-0.1-95.7-44.1-98.9-91.9c-4.3-64.5,45.2-103.7,88.6-107.5c29.4-2.6,55.6,5.1,77.8,24.7
			c19.4,17.1,30.5,38.9,32.8,64.7c2.7,29.4-5.6,55.6-25.8,77.4C394.8,429.4,369.8,440.3,340.3,440.5z M330.9,323.8
			c0.9-1.6,1.4-2.6,2-3.5c6.3-9.7,12.5-19.4,18.9-29c3.2-4.7,3.8-9.8,2.3-15c-2.1-7.3-7.8-10.9-15-11.6c-6.4-0.7-11.5,2.3-14.9,7.6
			c-8.9,13.6-17.6,27.3-26.3,40.9c-3.9,6-7.6,11.8-6.7,19.7c1.4,11.8,10.9,23.3,23.7,23.8c11,0.4,22.1,0.2,33.2,0.3
			c1.1,0,2.2,0.1,3.7,0.2c-6.4,9.3-12.6,18.1-18.7,27c-3.4,4.9-7.4,9.5-7.4,15.9c0,6.9,5.6,14,12,16c5.4,1.7,14.1-0.9,17.7-5.9
			c10.8-15.2,21.6-30.5,31.9-46.1c4.1-6.2,4.9-13.3,2.8-20.7c-3.4-11.6-13.7-19.4-26.1-19.5C353.2,323.7,342.4,323.8,330.9,323.8z"
			/>
		<path class="st0" d="M241.3,158.9c0,11.3-0.1,22.7,0.1,34c0,1.2,0.8,2.8,1.8,3.5c10,7.2,15,16.8,14.5,29.1
			c-0.8,16.9-15.2,30.3-31.2,31.3c-18.2,1.1-31.8-11.3-34.9-27c-1.8-9.2,0-18.3,6.1-26c2.1-2.6,4.3-5.2,7-6.9
			c2.8-1.8,3.2-3.7,3.2-6.6c-0.1-22.5,0-45.1,0-67.6c0-7.8,7-15.2,15.5-15.5c10.2-0.4,17.9,7.7,17.9,18
			C241.2,136.5,241.3,147.7,241.3,158.9z"/>
	</g>
</g>
</svg>
