<?xml version="1.0" encoding="utf-8"?>
<!-- Generator: Adobe Illustrator 27.8.1, SVG Export Plug-In . SVG Version: 6.00 Build 0)  -->
<svg version="1.1" id="Capa_1" xmlns="http://www.w3.org/2000/svg" xmlns:xlink="http://www.w3.org/1999/xlink" x="0px" y="0px"
	 viewBox="0 0 480 480" style="enable-background:new 0 0 480 480;" xml:space="preserve">
<style type="text/css">
	.st0{fill:#00FFF8;}
</style>
<g id="gvbwdJ.tif_00000007401745561210948360000014165043635060833676_">
	<g>
		<path class="st0" d="M330.3,47.6c5.7,1.3,11.6,2.3,17.2,4c11.5,3.4,21.7,9,30.8,16.9c9.1,8,16.2,17.3,21.3,28.3
			c3.8,8.2,6.4,16.8,6.9,26c0.2,3.1,0.6,6.1,0.7,9.2c0.3,8.5-7,15.2-13.4,16.1c-11,1.6-17.4-4-19.4-12.5c-1.5-6.4-1.4-13.3-3.4-19.5
			c-5.7-17.6-18.1-28.6-36-33c-4.8-1.2-9.9-1.6-14.9-1.6c-66.6-0.1-133.2-0.2-199.8,0.1c-11.3,0-21.4,4.4-30.2,11.9
			c-9.2,7.8-14.6,17.8-17.1,29.4c-0.7,3-0.4,6.3-0.4,9.4c0,39.3-0.1,78.5,0,117.8c0.1,18.7,9,32.5,24.6,42.4
			c8.3,5.2,17.4,6.8,27,6.8c31.9-0.1,63.9,0.1,95.8-0.1c11.7-0.1,20.2,7.1,20,20c-0.2,20.3-0.2,40.6,0,60.8
			c0.2,12.1-7.6,20.2-20,19.9c-21.8-0.5-43.7,0.1-65.5-0.1c-7.6-0.1-14.1-6.6-15-14c-1.5-12.6,7.5-19.9,18.3-19.6
			c14.8,0.4,29.6,0.1,44.4,0.1c1.3,0,2.5,0,4,0c0-11.3,0-22.3,0-33.6c-1.5,0-2.9,0-4.3,0c-26.6,0-53.1-0.1-79.7,0
			c-17.6,0.1-33.5-5.1-47.8-15.2c-17.6-12.4-28.4-29.3-33.9-49.9c-0.7-2.6-1.1-5.3-1.6-8c0-46.3,0-92.6,0-139
			c0.2-0.2,0.7-0.5,0.7-0.7c2-16.9,9.3-31.5,20.4-44.2c10.3-11.8,23.2-19.9,38.3-24.1c5.3-1.5,10.6-2.6,16-3.9c2.1,0,4.2,0,6.3,0
			c1.3,0.3,2.7,0.8,4,0.8c66.7,0,133.4,0.1,200.1,0c1.1,0,2.1-0.5,3.2-0.8C328.7,47.6,329.5,47.6,330.3,47.6z"/>
		<path class="st0" d="M331.1,433.1c-5.7-1.8-11.6-3.2-17.1-5.5c-16.8-6.9-28.6-19-35.4-35.7c-2.7-6.7-3.8-14.1-5.4-21.2
			c-0.3-1.5,0.4-3.2,0.4-4.8c0-39.1,0.2-78.2,0-117.3c-0.1-20.6,8.1-37.3,23.2-50.6c10.1-8.9,22.1-14.6,35.7-15.2
			c14.2-0.7,28.4-1.2,42.6-0.7c19.8,0.6,36.7,8.2,49.7,23.4c7.7,8.9,12.8,19.2,14.7,30.9c0.2,1.3,1,2.4,1.5,3.7
			c0,45.3,0,90.6,0,135.8c-0.6,1.7-1.2,3.3-1.7,5c-7,26.2-23.7,42.9-49.7,50.5c-2.5,0.7-5,1.2-7.5,1.8
			C365.1,433.1,348.1,433.1,331.1,433.1z M306.7,307.3c0.1,0,0.1,0,0.2,0c0,19.5,0.2,39-0.1,58.5c-0.1,9.2,3.1,17.1,9.2,23.5
			c6.7,7,15,10.7,25.1,10.4c12-0.4,24.1,0,36.1-0.3c8.6-0.3,15.7-4.5,21.4-10.6c6.5-7,8.9-15.6,8.9-25.1c-0.1-37.4,0-74.8-0.1-112.2
			c0-2.8-0.6-5.6-0.9-8.4c-2-15.4-15.6-26.7-30.5-27.3c-12.4-0.5-24.8-0.2-37.3-0.2c-2.1,0-4.3,0.4-6.4,0.9
			c-15.8,3.9-24.8,16.4-25.3,29.7C306.2,266.4,306.7,286.9,306.7,307.3z"/>
		<path class="st0" d="M327.9,47.6c-1.1,0.3-2.1,0.8-3.2,0.8c-66.7,0-133.4,0-200.1,0c-1.3,0-2.7-0.5-4-0.8
			C189.8,47.6,258.8,47.6,327.9,47.6z"/>
	</g>
</g>
</svg>
