<?xml version="1.0" encoding="utf-8"?>
<!-- Generator: Adobe Illustrator 27.8.1, SVG Export Plug-In . SVG Version: 6.00 Build 0)  -->
<svg version="1.1" id="Capa_1" xmlns="http://www.w3.org/2000/svg" xmlns:xlink="http://www.w3.org/1999/xlink" x="0px" y="0px"
	 viewBox="0 0 480 480" style="enable-background:new 0 0 480 480;" xml:space="preserve">
<style type="text/css">
	.st0{fill:#343434;}
</style>
<g id="c9o5vP.tif">
	<g>
		<path class="st0" d="M168.7,23.2c48.1,0,96.1,0,144.2,0c0.4,0.3,0.8,0.6,1.3,0.8c8.5,2.4,14.9,7.4,16.7,16.2
			c0.9,4.3,0.8,9.4-0.8,13.4c-6.3,16-16.7,29.4-29,41c-8.6,8.1-18.2,15.2-27.5,22.8c0.4,0.2,0.9,0.5,1.4,0.7
			c10.2,3.9,20.6,7.2,30.4,11.8c18.3,8.6,34.5,20.7,49,34.7c9.9,9.6,19,20.1,27.6,30.9c21.6,26.9,37.5,57.1,47.6,90.1
			c4,13.2,6,26.9,8.8,40.5c0.9,4.5,2.6,18,2.6,20.3c0,3.1,0,6.2,0,9.3c0,1.7-5.3,29.2-9.5,39c-7.7,18-19.2,33.1-35,45.1
			c-10.1,7.6-20.9,13.6-32.8,17.7c-3.4,0-6.8,0-10.2,0c-5.5-2.1-10.7-4.6-14.8-9.2c-9.1-10.3-9.3-25.4,0-36
			c5-5.7,12.1-7.4,18.1-11.1c12.6-7.7,21.7-18.3,26.3-32.5c3.5-10.7,2.9-21.6,1.9-32.6c-1-11.4-3.5-22.4-6.7-33.4
			c-4.4-14.8-10.6-28.7-17.9-42.2c-9.2-16.8-20.5-32.2-33.5-46.3c-11.7-12.7-25-23.6-40-32.4c-12.8-7.5-26.6-12.3-41.4-13.5
			c-14.8-1.2-28.6,3.1-41.8,9.2c-15.3,7.1-28.5,17.3-40.4,29c-7.8,7.7-14.7,16.4-21.7,24.9c-14.9,18.4-25.8,39.1-34,61.2
			c-4.6,12.3-7.8,25-9.5,38.1c-1.5,11.4-2.8,22.6,0.2,33.9c4.8,18.2,15.5,31.7,32.6,39.3c10.4,4.6,17.8,11.1,19.7,22.6
			c1.4,8.3-1.5,18.3-9.5,24.1c-4,2.9-8.8,4.6-13.2,6.9c-3.4,0-6.8,0-10.2,0c-0.1-0.2-0.2-0.6-0.4-0.7c-18.4-6.2-33.7-16.9-46.6-31.4
			c-13.3-15-21.8-32.1-25.9-51.6c-0.9-4.3-2.6-16.4-2.6-18.1c0-3.1,0-6.2,0-9.3c0-2.8,1-19,1.8-22.6c3.4-14.6,6.5-29.4,10.9-43.7
			c5.7-18.6,14-36.1,24-52.8c16-26.8,34.9-51,59-71.2c12.2-10.2,24.9-19.4,39.2-26.2c10.4-4.9,21.3-8.7,32-12.9
			c-14.9-10.1-28.6-22.3-40.4-36.5c-7-8.4-12.7-17.6-16.6-27.8c-2.1-5.4-1.4-10.7,0.8-16.1C156,29.4,162.2,26.2,168.7,23.2z"/>
		<path class="st0" d="M235.7,457.5c-9.1-3.1-16.2-8.4-19.8-17.6c-0.3-0.9-1.7-1.6-2.7-1.9c-18.4-4.9-32.8-15.2-41.6-32.4
			c-8.7-16.9,4.5-38.5,23.6-38.1c10.3,0.2,18.3,3.8,23.9,12.6c2.2,3.5,5.4,5.6,10.1,5.2c6-0.5,12.1-0.2,18.2-0.1
			c6.8,0.1,10.8-3.6,11.9-9.5c0.9-4.7-2.7-9.4-8.2-11.6c-15.4-6.2-31.2-11.7-46.2-18.9c-18.5-8.9-30.2-24.1-34.6-44.4
			c-4.5-21.2,0.7-40,14.8-56.5c7.5-8.8,16.7-14.9,27.5-18.7c1-0.4,2.2-1.5,2.5-2.6c3.8-10.2,10.5-17.3,21.6-18.5
			c13.6-1.5,24.2,3.4,29.5,16.7c1.2,3,3.8,2.9,6,3.5c18.4,5.3,32.1,16.1,39.7,33.8c4.5,10.5-0.1,25-11.4,31.8
			c-12.8,7.7-29.6,4.1-37-8.7c-2.1-3.6-5.3-5.5-9.7-5.3c-6.4,0.2-12.7,0-19.1,0.1c-6.3,0.1-10.7,3.7-11.8,9.4
			c-0.7,3.9,3.8,10.1,8.5,12c16,6.4,32.3,12.2,47.8,19.6c17.7,8.4,28.5,23.3,32.7,42.4c5.6,25.4-2.1,46.9-21.4,63.9
			c-5.6,4.9-13.1,7.7-19.7,11.6c-1.5,0.9-3.1,2.1-3.7,3.6c-4.1,9.4-10.5,15.8-20.9,17.7c-0.2,0-0.3,0.4-0.4,0.6
			C242.5,457.5,239.1,457.5,235.7,457.5z"/>
		<path class="st0" d="M42.3,346.4c0,3.1,0,6.2,0,9.3C42.3,352.6,42.3,349.5,42.3,346.4z"/>
		<path class="st0" d="M441,355.7c0-3.1,0-6.2,0-9.3C441,349.5,441,352.6,441,355.7z"/>
	</g>
</g>
</svg>
