<?xml version="1.0" encoding="utf-8"?>
<!-- Generator: Adobe Illustrator 27.8.1, SVG Export Plug-In . SVG Version: 6.00 Build 0)  -->
<svg version="1.1" id="Capa_1" xmlns="http://www.w3.org/2000/svg" xmlns:xlink="http://www.w3.org/1999/xlink" x="0px" y="0px"
	 viewBox="0 0 480 480" style="enable-background:new 0 0 480 480;" xml:space="preserve">
<style type="text/css">
	.st0{fill:#343434;}
</style>
<g id="wJT4yC.tif">
	<g>
		<path class="st0" d="M437,362.9c-1.2,3.7-2,7.6-3.8,11c-2.6,5-5.6,10-9.2,14.4c-6.2,7.6-12.7,14.9-19.5,21.9
			c-12.8,13.2-28.6,20.8-46.3,25.1c-3.6,0.9-7.1,1.6-10.7,2.3c-9,0-18,0-27,0c-4.5-0.8-9-1.6-13.5-2.3c-14.5-2.4-28.5-6.6-42.1-12.1
			c-23.2-9.2-44.9-21.2-65.1-35.8c-11.5-8.3-22.6-17-33.6-26c-7.8-6.3-15.3-13-22.4-20.1c-18.1-18.1-34.8-37.4-49.6-58.4
			c-11.9-16.9-22.4-34.6-31.2-53.3c-8.6-18.3-14.7-37.4-18.5-57.3c-0.6-3-0.5-6-0.9-9c-0.2-1.4-1-2.7-1.5-4c0-8.2,0-16.4,0-24.7
			c1.3-5.4,2.4-10.7,3.8-16.1c3.7-13.9,9.6-27,19.5-37.4C75.3,71,86,61.5,96.7,52.4c6-5.1,13.7-7.4,21.5-8.7
			c0.4-0.1,0.8-0.5,1.1-0.7c1,0,2.1,0,3.1,0c2.3,0,4.6,0,6.9,0c1,0,2.1,0,3.1,0c2.6,0.7,5.2,1.2,7.8,2c12.8,3.8,21.8,12.2,29.3,22.8
			c7.5,10.7,15.6,21.1,23.9,31.1c9.6,11.5,14.5,24.1,13,39.2c-0.8,8.1-2.9,15.8-7.7,22.3c-7.3,9.8-15,19.3-22.7,28.8
			c-1.8,2.2-2.4,4-0.9,6.7c2.7,4.6,4.8,9.6,7.3,14.3c13.4,25.9,31.4,47.9,54.1,66.2c14.2,11.4,29.7,20.5,46.1,28.2
			c2,0.9,4.3,2.9,6.8,0.9c3.1-2.4,6-5,9-7.4c6.2-5.1,12.2-10.7,18.8-15.2c11.1-7.5,23.3-10.8,37-8.8c9.3,1.4,17.4,4.9,24.7,10.6
			c11.3,8.8,22.4,17.8,33.8,26.5c7.4,5.6,14.7,11.2,18.5,20c2.2,5,3.7,10.4,5.5,15.6C437,352.1,437,357.5,437,362.9z M373.1,393.7
			c8.2-5.1,13.8-12.9,20-20c2.3-2.7,4.4-5.6,6.9-8.1c5.8-5.8,5.2-19.9-2.7-25.4c-12.1-8.5-23.7-17.8-35.1-27.2
			c-6.4-5.2-13.1-8.5-21-5.4c-4.4,1.7-8.3,5-12.1,8c-9.7,7.6-19.2,15.5-28.8,23.2c-5.4,4.4-11.3,3.8-17.3,1.5
			c-18.9-7.5-36.8-16.9-53.6-28.3c-15.6-10.6-29.5-23.4-42.1-37.3c-17.2-19.1-30.7-40.8-41.6-64.1c-2-4.3-3.6-8.7-5.5-13
			c-3.4-8-1.2-14.7,4.1-21.1c9-10.7,17.9-21.6,26.4-32.7c5.2-6.8,4.4-15.8-1.3-22.7c-7.7-9.3-14.9-19-22.3-28.6
			c-2.9-3.8-5.4-7.9-8.7-11.3c-5.6-5.9-14.3-6.9-22.3-1.8c-5.3,3.4-9.7,8-14.6,12c-7.1,5.8-13.2,12.4-17.6,20.6
			c-4.2,7.8-7,15.9-7.8,24.7c-0.2,2-0.7,4-0.7,6c-0.3,18.7,3.3,36.8,9.5,54.4c9,25.4,22.5,48.3,38.3,70
			c14.9,20.5,31.9,39.1,50.3,56.2c20.3,18.9,42.3,35.5,66.2,49.7c17,10.1,34.7,18.8,53.6,24.7c13.1,4.1,26.3,7.5,40.9,6.7
			C348.1,405.7,361.1,401.2,373.1,393.7z"/>
		<path class="st0" d="M122.5,43c2.3,0,4.6,0,6.9,0C127.1,43,124.8,43,122.5,43z"/>
	</g>
</g>
</svg>
