<?xml version="1.0" encoding="utf-8"?>
<!-- Generator: Adobe Illustrator 27.8.1, SVG Export Plug-In . SVG Version: 6.00 Build 0)  -->
<svg version="1.1" id="Capa_1" xmlns="http://www.w3.org/2000/svg" xmlns:xlink="http://www.w3.org/1999/xlink" x="0px" y="0px"
	 viewBox="0 0 480 480" style="enable-background:new 0 0 480 480;" xml:space="preserve">
<style type="text/css">
	.st0{fill:#343434;}
</style>
<g id="JZA9Wc.tif">
	<g>
		<path class="st0" d="M377.9,442.7c-95.4,0-190.8,0-286.2,0c-0.3-0.2-0.5-0.7-0.8-0.7c-15-1.7-27.4-8.6-38-18.9
			c-9-8.8-14.8-19.6-18-31.7c-0.6-2.1-1.1-4.3-1.6-6.4c0-34.5,0-69,0-103.6c0.2-0.3,0.7-0.5,0.7-0.8c2.5-19,12.4-33.7,27.4-44.8
			c11.7-8.7,25.4-12.4,40-12.3c5.3,0,10.7,0,16.3,0c0-2,0-3.4,0-4.8c0-36.9,0-73.8,0-110.6c0-2.4-0.9-5-0.4-7.3
			c1.5-7.2,2.8-14.6,5.5-21.3c7.1-17.7,19.9-30,37.8-36.8c5.1-1.9,10.5-3.2,15.8-4.8c39.3,0,78.5,0,117.8,0c1.6,0.5,3.2,1.3,4.9,1.5
			c16.4,2.9,29.5,11.4,39.8,24c10.6,13,14.8,28.5,14.8,45.2c-0.1,36.7,0,73.5,0,110.2c0,1.4,0,2.8,0,4.6c4.6,0,8.8,0,12.9,0
			c14-0.1,27.3,2.7,39.3,10.3c12.8,8,22,19,27.4,33c1.9,5,3.2,10.3,4.8,15.4c0,34,0,68,0,102c-0.5,1.9-1.1,3.7-1.6,5.6
			c-6.3,24.2-21.3,40.6-44.6,49.4C387.4,440.9,382.6,441.6,377.9,442.7z M319.8,223.3c0.1-1,0.2-1.6,0.2-2.3c0-37.9,0-75.9,0-113.8
			c0-2.6-0.1-5.3-0.7-7.8c-4.2-17.6-16.8-27.6-34.4-27.7c-32.9-0.2-65.8-0.1-98.8,0c-3.7,0-7.7,0.1-11.2,1.2
			c-14.7,4.9-23.9,17.3-23.8,33c0.2,37.7,0,75.3,0,113c0,1.4,0,2.8,0,4.4C207.6,223.3,263.5,223.3,319.8,223.3z M218.6,408.9
			c0-50.9,0-101.2,0-151.6c-0.8-0.1-1.5-0.2-2.1-0.2c-38.3,0-76.7,0-115,0c-2.9,0-5.8,0.1-8.6,0.8C77.1,262.2,66.8,275,67,291.4
			c0.3,27.5,0,55.1,0.1,82.6c0,4,0.4,8.1,1.5,11.9c3.7,12.3,17.3,23.5,33.3,23.2c37.4-0.6,74.8-0.2,112.2-0.2
			C215.6,408.9,217,408.9,218.6,408.9z M252.6,408.9c1.4,0,2.7,0,4,0c13.2,0,26.3,0,39.5,0c25.8,0,51.6,0,77.4-0.3
			c8.7-0.1,15.8-4.5,21.6-10.6c6.6-6.9,9.1-15.7,9.1-25.2c0-26.5,0.1-53-0.1-79.4c0-3.8-0.6-7.7-1.5-11.5
			c-3.9-15.7-17.9-24.9-34.3-24.9c-37.3-0.1-74.6,0-111.8,0c-1.3,0-2.5,0.1-3.9,0.2C252.6,307.9,252.6,358.2,252.6,408.9z"/>
		<path class="st0" d="M234.8,139.1c-5.3,0-10.5-0.2-15.8,0c-10.5,0.4-16.9-7.9-17.4-15.9c-0.6-9.6,6.4-17.4,16.3-17.8
			c11.6-0.4,23.2-0.7,34.7,0.1c10.3,0.7,14.9,6.1,16.1,13.8c1.6,10.4-4.6,17.5-12.7,19.3c-5,1.1-10.4,0.4-15.7,0.5
			C238.5,139.1,236.7,139.1,234.8,139.1z"/>
		<path class="st0" d="M142.8,324.7c-5.8,0-11.6,0-17.4,0c-8.8,0.1-16.6-7.9-16.4-17.3c0.2-7.7,6.9-16.4,16.2-16.5
			c11.2-0.1,22.4-0.3,33.6,0.1c7,0.2,13,2.9,16.1,9.9c2.8,6.4,1.8,12.3-2.5,17.6c-2.9,3.5-6.6,6-11.4,6.1
			C154.9,324.7,148.8,324.6,142.8,324.7C142.8,324.6,142.8,324.6,142.8,324.7z"/>
		<path class="st0" d="M327.7,324.6c-5.9,0-11.8,0-17.8,0c-7.1,0.1-14.5-6.5-15.8-16c-0.9-6.5,5.4-15.3,12.1-16.8
			c2.4-0.6,4.8-0.8,7.3-0.8c11.8,0.2,23.6,0.2,35.3,0.8c6.5,0.3,12,6.6,12.5,13c1,12.8-5.6,19.9-18.6,19.9c-5,0-10,0-15,0V324.6z"/>
	</g>
</g>
</svg>
