<?xml version="1.0" encoding="utf-8"?>
<!-- Generator: Adobe Illustrator 27.8.1, SVG Export Plug-In . SVG Version: 6.00 Build 0)  -->
<svg version="1.1" id="Capa_1" xmlns="http://www.w3.org/2000/svg" xmlns:xlink="http://www.w3.org/1999/xlink" x="0px" y="0px"
	 viewBox="0 0 480 480" style="enable-background:new 0 0 480 480;" xml:space="preserve">
<style type="text/css">
	.st0{fill:#343434;}
</style>
<g id="QqmRXo.tif">
	<g>
		<path class="st0" d="M246.6,438h-15.2c-1.7,0-3.4-0.2-5.1-0.6c-1.3-0.3-2.5-0.6-3.8-0.9c-22.9-4.6-41.2-16.4-54.6-35.5
			c-12.6-18-25.2-36-37-54.5c-9.8-15.2-19-30.9-27.4-46.9c-7.5-14.4-14.1-29.4-20-44.6c-3.8-10-5.6-20.8-8.2-31.2
			c-0.5-2-0.9-4-1.2-6.1c-0.2-1.2-0.3-2.5-0.3-3.7v-12.4c0-1.4,0.3-2.9,0.7-4.2c0-0.1,0.1-0.2,0.1-0.3c0.8-7,0.9-14.1,2.4-21
			c3.8-17.2,9.5-33.6,18.4-48.9c11.3-19.4,25.4-36.3,43.4-50c22-16.8,46.7-27.3,74-31.8c3.2-0.5,6.3-1.2,9.4-1.9
			c1.4-0.3,2.8-0.4,4.2-0.4h23.3c1.8,0,3.6,0.4,5.4,0.7c0,0,0,0,0,0c6.8,1.1,13.7,1.8,20.4,3.3c16.8,3.9,32.8,10,47.7,18.8
			c16.9,9.9,31.6,22.3,44.1,37.3c10.9,13.2,19.7,27.8,25.9,43.7c5,12.9,8.9,26.1,10.2,40.1c0.3,3.5,1.1,7,1.8,10.5
			c0.3,1.4,0.4,2.7,0.4,4.1v9.4c0,2.3-0.3,4.6-1.1,6.7c-0.2,0.4-0.3,0.9-0.4,1.3c-1.8,8.5-3,17.2-5.4,25.5
			c-5.8,20.2-14.4,39.2-24.8,57.5c-9.2,16.1-18.2,32.2-28.1,47.8c-11.1,17.4-23,34.4-35,51.2c-11.5,16.2-26.8,27.6-46.1,33.2
			c-4.4,1.3-9,2.2-13.5,3.3C249.7,437.8,248.1,438,246.6,438z M109.9,209.5c-0.5,6.6,1.8,15.9,4.6,25.2
			c7.1,23.6,18.1,45.6,30.8,66.5c15.8,26.1,33.1,51.3,50.2,76.6c11.9,17.5,28.3,26.4,50,23.9c14.5-1.7,26.4-8.6,34.9-20.1
			c11-14.8,21.1-30.2,31.4-45.6c16.8-25.1,32.2-51.1,44.2-78.9c7.8-18.2,14.5-36.6,12.4-57c-0.8-7.8-1.5-15.8-3.4-23.4
			c-4.4-17.7-12.4-33.8-23.8-48.2c-11.6-14.7-25.6-26.3-42.2-35c-16.1-8.4-33.4-13.1-51.4-14.2c-12.5-0.8-25.1,0.1-37.4,2.9
			c-22.6,5.3-42.5,15.7-59.4,31.5c-12.5,11.7-22.3,25.5-29.3,41.3C114.2,171.4,110,188.3,109.9,209.5z"/>
		<path class="st0" d="M305.2,207.4c-0.1,36.3-29.3,67.9-69.4,66c-34.3-1.6-62.3-28.6-62.2-66.1c0.1-37,28.2-65.2,65.5-65.4
			C276,141.8,304.8,170.6,305.2,207.4z M272.1,207.9c1-17.4-14.2-34.1-34.9-33c-17,1-30.1,14.2-30.7,31.8
			c-0.6,17.5,14.4,35.2,35.2,33.8C256.9,239.5,272.8,225.9,272.1,207.9z"/>
	</g>
</g>
</svg>
